HIERARCHY
ROOT Hips
{
  OFFSET 0 0 0
  CHANNELS 6 Xposition Yposition Zposition Zrotation Yrotation Xrotation
  JOINT LeftThigh
  {
    OFFSET 8.409438 0 -5.917753
    CHANNELS 3 Zrotation Yrotation Xrotation
    JOINT LeftLeg
    {
      OFFSET 0 0 -42.358652
      CHANNELS 3 Zrotation Yrotation Xrotation
      JOINT LeftFoot
      {
        OFFSET 0 0 -39.357303
        CHANNELS 3 Zrotation Yrotation Xrotation
      }
    }
  }
  JOINT RightThigh
  {
    OFFSET -8.409438 0 -5.917753
    CHANNELS 3 Zrotation Yrotation Xrotation
    JOINT RightLeg
    {
      OFFSET 0 0 -42.358652
      CHANNELS 3 Zrotation Yrotation Xrotation
      JOINT RightFoot
      {
        OFFSET 0 0 -39.357303
        CHANNELS 3 Zrotation Yrotation Xrotation
      }
    }
  }
  JOINT SpineLow
  {
    OFFSET 0 0 4.719101
    CHANNELS 3 Zrotation Yrotation Xrotation
    JOINT SpineMid
    {
      OFFSET 0 0 12.899191
      CHANNELS 3 Zrotation Yrotation Xrotation
      JOINT Chest
      {
        OFFSET 0 0 12.899191
        CHANNELS 3 Zrotation Yrotation Xrotation
        JOINT LeftShoulder
        {
          OFFSET 7.550562 1.41573 9.438202
          CHANNELS 3 Zrotation Yrotation Xrotation
          JOINT LeftArm
          {
            OFFSET 9.155056 0 4.247191
            CHANNELS 3 Zrotation Yrotation Xrotation
            JOINT LeftForearm
            {
              OFFSET 0 0 25.771955
              CHANNELS 3 Zrotation Yrotation Xrotation
              JOINT LeftHand
              {
                OFFSET 0 0 25.197169
                CHANNELS 3 Zrotation Yrotation Xrotation
              }
            }
          }
        }
        JOINT RightShoulder
        {
          OFFSET -7.550562 1.41573 9.438202
          CHANNELS 3 Zrotation Yrotation Xrotation
          JOINT RightArm
          {
            OFFSET -9.155056 0 4.247191
            CHANNELS 3 Zrotation Yrotation Xrotation
            JOINT RightForearm
            {
              OFFSET 0 0 -25.771955
              CHANNELS 3 Zrotation Yrotation Xrotation
              JOINT RightHand
              {
                OFFSET 0 0 -25.197169
                CHANNELS 3 Zrotation Yrotation Xrotation
              }
            }
          }
        }
        JOINT Neck
        {
          OFFSET 0 0 15.101124
          CHANNELS 3 Zrotation Yrotation Xrotation
          JOINT Head
          {
            OFFSET 0 0 11.325843
            CHANNELS 3 Zrotation Yrotation Xrotation
            End Site
            {
              OFFSET 0 0 14.157303
            }
          }
        }
      }
    }
  }
}
MOTION
Frames: 16
Frame Time: 0.0
0.0  101.685394  0.0  -1.422188  20.875824  -98.643086  -17.271994  -14.112165  4.469761  21.038034  2.381115  76.264038  -9.715801  3.534084  0.645342  -36.030834  -8.002784  -23.222191  4.223461  10.67087  30.74205  24.47743  1.932128  8.261475  -11.074433  0.140903  -0.298491  -30.272197  0.241257  -0.859965  -30.272199  0.241257  -0.859965  16.93828  29.713381  20.241228  174.517056  48.232332  -154.753641  -65.129899  -33.751912  112.732191  47.062636  4.368408  3.204541  43.556462  1.959795  43.669225  125.317779  47.541262  31.903035  -16.435829  15.296122  -86.153051  85.422857  -17.036168  95.116591  14.567532  0.085189  -0.044325  10.925654  0.062877  -0.035299  
0.0  101.685394  0.0  -1.384377  20.786919  -98.529193  -16.386081  -12.629021  8.489956  21.771234  -1.594464  71.476848  -10.42059  3.65368  0.09762  -35.681706  -7.994402  -23.561213  4.675523  10.690921  31.429419  23.967373  2.099787  8.037815  -11.241979  0.088736  -0.405486  -30.729323  0.05094  -1.121681  -30.729325  0.05094  -1.121681  16.90123  30.050844  20.278238  173.511239  47.65482  -155.737624  -65.002643  -32.924399  113.474168  46.783489  3.315411  1.429059  43.671228  2.126174  43.228819  125.517662  47.345173  31.858324  -16.591471  14.58628  -87.072944  87.628407  -16.827755  94.788337  14.967352  0.152205  0.007121  11.225506  0.11441  0.001613  
0.0  101.685394  0.0  -1.386773  20.950227  -98.23389  -14.985009  -11.589976  12.289114  22.543119  -4.344474  66.073214  -10.604276  3.758526  -0.44604  -35.199225  -8.151313  -24.190284  4.947776  10.920192  32.248974  23.633232  2.457403  7.934324  -11.415478  -0.001782  -0.485256  -31.201683  -0.230212  -1.291898  -31.201683  -0.230212  -1.291898  16.596943  30.487501  20.089267  172.022206  47.168804  -156.916502  -65.129354  -32.544949  114.215918  46.615644  2.150554  -0.35642  43.77554  2.414522  42.611515  125.557987  47.33581  31.697519  -16.85641  13.875896  -87.896219  90.186819  -16.747151  94.02352  15.235234  0.236199  -0.115149  11.426453  0.174406  -0.09232  
0.0  101.685394  0.0  -1.471974  21.275375  -97.822468  -13.151199  -11.228426  15.931505  23.233666  -5.489331  59.985896  -9.972853  3.578379  -0.628728  -36.065348  -8.653291  -25.768691  6.670366  10.475617  34.247385  23.329226  3.038445  7.85371  -11.583914  -0.123742  -0.55619  -31.659435  -0.591493  -1.422267  -31.659435  -0.591493  -1.422267  16.052001  30.913148  19.64467  170.099687  46.610351  -158.442594  -65.400202  -32.485365  114.884763  46.443229  0.884214  -2.020021  43.824401  2.796248  41.955343  123.881506  48.667221  30.508455  -15.843955  12.572754  -88.829327  93.086269  -16.557979  92.484776  15.406633  0.320229  -0.304662  11.555108  0.232664  -0.236751  
0.0  101.685394  0.0  -1.475874  21.699966  -97.428039  -11.026  -11.406081  19.68453  23.142742  -4.146229  53.008328  -8.2423  3.045572  -0.245053  -35.241554  -8.752389  -26.776209  6.483359  10.964203  35.33098  22.992883  3.454227  7.650386  -11.735806  -0.189843  -0.662792  -32.072138  -0.821275  -1.672549  -32.072138  -0.821275  -1.672549  15.595383  31.140818  19.302523  167.966982  45.983984  -160.15309  -65.465025  -32.569452  115.326854  46.267591  -0.452729  -3.561227  43.888884  2.840701  41.542215  123.197502  48.967313  29.721556  -16.132779  11.806409  -89.54049  96.201504  -16.067936  90.352288  15.461335  0.275224  -0.36085  11.596145  0.197436  -0.277814  
0.0  101.685394  0.0  -1.274968  22.194089  -97.191515  -8.770063  -11.858303  23.621418  20.975162  -0.07467  45.741774  -5.146799  2.165196  0.154088  -34.427684  -8.555077  -27.745007  6.375348  11.403983  36.726819  22.555301  4.033069  7.277049  -11.836631  -0.165927  -0.76656  -32.346658  -0.809995  -1.958388  -32.346661  -0.809995  -1.958388  15.262374  31.189665  19.207583  165.878306  45.465987  -161.572346  -64.995763  -32.593894  115.391025  46.242691  -1.792638  -4.95657  43.699189  2.597711  41.15635  121.857825  49.384592  28.551952  -16.026136  10.991859  -90.419779  99.357317  -15.282089  87.928266  15.30115  0.087238  -0.373892  11.475919  0.056106  -0.282814  
0.0  101.685394  0.0  -0.851596  22.706189  -97.037755  -6.386943  -12.606239  27.498332  16.383344  4.708678  38.624438  -1.83561  1.579042  0.111695  -33.616019  -8.160603  -28.711409  5.812024  12.259894  37.993102  22.600956  4.600395  6.951049  -11.941074  -0.103239  -0.878901  -32.632052  -0.700837  -2.285665  -32.632056  -0.700837  -2.285665  15.158533  31.314472  19.188152  164.164221  45.003962  -162.613134  -63.967008  -32.539225  115.052098  46.433475  -3.09779  -6.107008  43.773799  2.32307  40.91261  120.170732  49.94599  27.217696  -15.651694  10.093412  -91.345123  102.363975  -14.289684  85.515148  15.186365  -0.092146  -0.348459  11.389723  -0.077829  -0.259244  
0.0  101.685394  0.0  -0.179934  23.341931  -96.698896  -4.136292  -13.721908  30.993782  10.114874  8.59691  31.003953  0.281612  1.77926  0.505028  -33.083598  -7.489374  -29.940033  5.359143  13.058672  39.398997  22.662834  5.158967  6.541236  -12.037474  -0.034865  -1.023228  -32.895687  -0.592999  -2.701011  -32.895686  -0.592999  -2.70101  15.203326  31.557049  19.216223  162.644468  44.630287  -163.4296  -63.925855  -33.363317  113.228845  45.305822  -5.271173  -4.965107  42.358164  2.473205  39.787533  120.297509  49.498148  26.30983  -15.271928  9.059308  -92.156783  105.079392  -13.123845  83.373749  15.016581  -0.232466  -0.327192  11.2623  -0.182523  -0.239851  
0.0  101.685394  0.0  0.730813  23.967327  -96.065277  -2.145997  -15.097056  34.056403  3.539038  11.012523  23.369836  4.706273  2.743348  2.730842  -32.590598  -6.649765  -31.589104  5.303629  13.582051  41.082787  22.657523  5.673258  6.113541  -12.020754  0.096681  -1.194978  -32.853227  -0.326818  -3.221717  -32.853225  -0.326818  -3.221717  14.708676  31.400194  19.303796  161.100077  44.200288  -164.193533  -62.520396  -33.182762  112.427643  45.75629  -6.451743  -4.931786  41.945001  1.934916  39.401318  118.969318  50.208739  25.2315  -14.897395  7.795204  -92.845194  107.512379  -11.981301  81.743736  14.478805  -0.543406  -0.288969  10.858769  -0.414679  -0.203982  
0.0  101.685394  0.0  1.886757  24.804607  -95.006145  -0.929978  -16.667836  36.580964  -1.987191  13.597188  16.749427  9.82397  3.035754  5.026695  -32.196278  -5.761289  -33.804037  5.836134  13.913822  42.951027  22.36295  5.919363  5.672112  -11.967896  0.233787  -1.397881  -32.713927  -0.058752  -3.828131  -32.713928  -0.058752  -3.82813  14.033279  31.07218  19.300264  159.200492  43.652905  -165.126894  -61.406404  -33.127282  111.699898  46.110271  -7.579728  -4.157547  41.306844  1.390533  38.882412  117.776517  51.023938  24.235774  -14.530275  6.449934  -93.487429  109.66222  -11.240692  80.75143  13.738664  -0.852234  -0.327442  10.303355  -0.646926  -0.226548  
0.0  101.685394  0.0  3.086261  25.460364  -93.643563  0.108105  -18.566536  38.26663  -4.860044  17.450962  12.531475  10.94392  1.319091  3.912745  -31.495307  -4.873669  -36.39268  6.689054  13.895447  44.877885  21.819256  6.080235  5.295475  -11.907723  0.307472  -1.610875  -32.552374  0.037384  -4.430425  -32.552373  0.037384  -4.430425  13.378825  30.955348  19.196543  157.38981  43.179243  -166.018054  -60.71644  -33.257844  111.034302  46.280157  -8.666794  -2.807195  41.116512  1.042789  38.465588  116.728875  52.003819  23.429863  -14.349605  5.198589  -94.096738  111.54788  -10.997601  80.276821  13.155353  -1.014018  -0.461192  9.865499  -0.770867  -0.324228  
0.0  101.685394  0.0  3.74932  26.181016  -92.454245  1.068011  -19.456322  39.041324  -4.094539  18.704865  12.553245  8.386127  0.063596  1.784582  -30.886131  -4.409573  -38.720415  7.718098  13.55337  46.650988  21.170083  6.279651  5.004616  -11.871057  0.294799  -1.729835  -32.450241  -0.051237  -4.740845  -32.450243  -0.051237  -4.740845  13.033831  31.000574  19.04343  157.290287  42.11326  -166.231661  -60.137814  -33.745912  110.355722  45.330696  -10.319341  0.110187  41.225598  0.855664  38.039123  115.825373  53.128621  22.874906  -14.473901  4.074059  -94.618511  113.184728  -11.139352  80.043803  12.609418  -1.099199  -0.788281  9.455376  -0.841093  -0.568793  
0.0  101.685394  0.0  4.499354  26.779609  -91.300185  1.255967  -17.847116  38.802827  1.986581  14.342535  15.941958  3.007505  2.824852  -0.843693  -30.156414  -4.007364  -40.817014  8.902478  13.200254  48.184065  20.391531  6.496847  4.657872  -11.811734  0.279146  -1.803842  -32.28626  -0.124126  -4.930717  -32.286258  -0.124126  -4.930717  12.429211  31.217468  18.546383  155.3016  42.132437  -167.263369  -59.953937  -34.0824  109.562809  45.337017  -11.377525  1.352849  41.532169  0.775386  37.629783  115.043001  54.421255  22.517915  -14.792391  3.114568  -94.9792  114.638307  -11.466272  79.588617  12.090648  -1.149154  -1.301948  9.065284  -0.888044  -0.954129  
0.0  101.685394  0.0  5.12935  27.567723  -90.298707  0.711706  -15.936274  38.258813  11.99869  10.061569  17.853061  -5.415516  3.74271  -1.503239  -29.605062  -3.651989  -42.52253  9.987206  12.901609  49.480917  19.593667  6.752505  4.248398  -11.756529  0.283507  -1.820902  -32.13559  -0.116587  -4.97881  -32.135592  -0.116587  -4.978809  11.823174  31.450632  18.104435  153.410767  42.359535  -168.061701  -60.297327  -34.744865  108.053355  44.78207  -12.695921  3.228493  41.703565  0.76305  37.428493  114.052821  56.440278  21.993874  -14.925391  1.988796  -95.106182  115.978936  -11.68034  78.460416  11.47659  -1.268895  -1.947377  8.603152  -0.988671  -1.437238  
0.0  101.685394  0.0  5.672805  28.461205  -89.384436  -0.458853  -14.974478  38.198783  15.202063  9.816496  16.348773  -8.531564  3.500907  -0.392531  -28.985864  -3.185284  -43.971489  10.606416  12.741194  50.615743  18.773514  7.028531  3.742504  -11.661086  0.322035  -1.779485  -31.87817  0.012678  -4.887957  -31.878172  0.012678  -4.887957  10.877526  31.561257  17.638916  151.53926  42.777153  -168.702285  -59.991834  -35.124206  107.124031  45.029608  -13.263066  3.932916  41.688559  0.482752  37.2377  113.725412  58.252493  22.086298  -15.619733  1.127244  -94.972823  117.131977  -12.016121  76.786183  10.648576  -1.534689  -2.665501  7.979443  -1.197922  -1.972967  
0.0  101.685394  0.0  6.100149  29.216699  -88.715177  -2.051899  -13.713553  38.338626  16.010604  11.601946  15.145241  -8.346014  1.959288  0.310894  -28.046063  -2.483197  -45.162714  10.661875  12.753668  51.634651  18.098296  7.288378  3.263593  -11.462074  0.425558  -1.678007  -31.342894  0.350297  -4.667823  -31.342891  0.350297  -4.667823  9.513803  31.480501  17.317884  149.738278  43.280169  -169.276913  -59.816225  -35.455279  106.353587  45.318187  -13.356381  4.812124  41.32185  -0.057219  37.015701  113.269901  60.190694  22.234553  -16.480307  0.336964  -94.64096  117.878118  -12.564773  74.867586  9.490706  -1.989488  -3.365745  7.106614  -1.54488  -2.493859  
